<svg width="512" height="512" viewBox="0 0 512 512" fill="none" xmlns="http://www.w3.org/2000/svg">
<circle cx="256" cy="256" r="256" fill="#252525"/>
<path d="M307.2 128V179.2H281.6V332.8H307.2V384H204.8V332.8H230.4V179.2H204.8V128H307.2ZM256 0C289.618 0 322.908 6.62164 353.967 19.4868C385.026 32.352 413.248 51.2089 437.019 74.9807C460.791 98.7525 479.648 126.974 492.513 158.033C505.378 189.092 512 222.382 512 256C512 323.895 485.029 389.01 437.019 437.019C389.01 485.029 323.895 512 256 512C222.382 512 189.092 505.378 158.033 492.513C126.974 479.648 98.7525 460.791 74.9807 437.019C26.9713 389.01 0 323.895 0 256C0 188.105 26.9713 122.99 74.9807 74.9807C122.99 26.9713 188.105 0 256 0ZM256 51.2C201.684 51.2 149.592 72.7771 111.185 111.185C72.7771 149.592 51.2 201.684 51.2 256C51.2 310.316 72.7771 362.408 111.185 400.815C149.592 439.223 201.684 460.8 256 460.8C310.316 460.8 362.408 439.223 400.815 400.815C439.223 362.408 460.8 310.316 460.8 256C460.8 201.684 439.223 149.592 400.815 111.185C362.408 72.7771 310.316 51.2 256 51.2Z" fill="url(#paint0_linear_895_302)"/>
<defs>
<linearGradient id="paint0_linear_895_302" x1="256" y1="512" x2="256" y2="3.6657e-06" gradientUnits="userSpaceOnUse">
<stop stop-color="#FFC737"/>
<stop offset="1" stop-color="#F4D011"/>
</linearGradient>
</defs>
</svg>
